<svg xmlns="http://www.w3.org/2000/svg" viewBox="0 0 100 100" shape-rendering="geometricPrecision">
  <rect width="100" height="100" fill="none"/>
  <g fill="none" stroke="#c9a84c" stroke-width="5.2" stroke-linejoin="round" stroke-linecap="round">
    <path d="M50 4 L59 29 L82 18 L71 41 L96 50 L71 59 L82 82 L59 71 L50 96 L41 71 L18 82 L29 59 L4 50 L29 41 L18 18 L41 29 Z"/>
    <circle cx="50" cy="50" r="31"/>
  </g>
  <g fill="#c9a84c" opacity="0.9">
    <path d="M50 13 L55 48 L50 64 L45 48 Z"/>
    <path d="M50 13 L55 48 L50 64 L45 48 Z" transform="rotate(45 50 50)"/>
    <path d="M50 13 L55 48 L50 64 L45 48 Z" transform="rotate(90 50 50)"/>
    <path d="M50 13 L55 48 L50 64 L45 48 Z" transform="rotate(135 50 50)"/>
    <path d="M50 13 L55 48 L50 64 L45 48 Z" transform="rotate(180 50 50)"/>
    <path d="M50 13 L55 48 L50 64 L45 48 Z" transform="rotate(225 50 50)"/>
    <path d="M50 13 L55 48 L50 64 L45 48 Z" transform="rotate(270 50 50)"/>
    <path d="M50 13 L55 48 L50 64 L45 48 Z" transform="rotate(315 50 50)"/>
  </g>
  <g fill="#f5efe4" stroke="#0f1b3d" stroke-width="5.8" stroke-linejoin="round" stroke-linecap="round">
    <path d="M50 34 C39 47 40 62 50 74 C60 62 61 47 50 34 Z"/>
    <path d="M30 49 C33 65 40 74 50 75 C47 61 41 53 30 49 Z"/>
    <path d="M70 49 C67 65 60 74 50 75 C53 61 59 53 70 49 Z"/>
  </g>
</svg>